<svg width="130" height="130" viewBox="0 0 130 130" fill="none" xmlns="http://www.w3.org/2000/svg">
<path d="M101.128 82L88.8801 59.1779V20H28V65.6442H74.8309L101.128 82Z" stroke="#FD5430" stroke-width="6"/>
<path d="M78.073 33.3129H38.8071M78.073 42.4417H38.8071M78.073 51.9509H38.8071" stroke="#FD5430" stroke-width="6"/>
<path d="M25.2471 101.197C25.2471 101.589 25.1742 101.956 25.0283 102.298C24.8825 102.635 24.682 102.931 24.4268 103.187C24.1761 103.437 23.8799 103.635 23.5381 103.781C23.2008 103.927 22.8385 104 22.4512 104H13.9336V102.599H22.4512C22.6471 102.599 22.8294 102.562 22.998 102.489C23.1667 102.416 23.3125 102.316 23.4355 102.188C23.5632 102.061 23.6634 101.913 23.7363 101.744C23.8092 101.571 23.8457 101.389 23.8457 101.197C23.8457 101.006 23.8092 100.826 23.7363 100.657C23.6634 100.489 23.5632 100.34 23.4355 100.213C23.3125 100.085 23.1667 99.985 22.998 99.9121C22.8294 99.8392 22.6471 99.8027 22.4512 99.8027H16.7363C16.3535 99.8027 15.9912 99.7298 15.6494 99.584C15.3076 99.4382 15.0091 99.2399 14.7539 98.9893C14.5033 98.734 14.3027 98.4355 14.1523 98.0938C14.0065 97.752 13.9336 97.3874 13.9336 97C13.9336 96.6172 14.0065 96.2549 14.1523 95.9131C14.3027 95.5713 14.5033 95.2751 14.7539 95.0244C15.0091 94.7692 15.3076 94.5687 15.6494 94.4229C15.9912 94.2725 16.3535 94.1973 16.7363 94.1973H24.5498V95.5986H16.7363C16.5449 95.5986 16.3626 95.6351 16.1895 95.708C16.0208 95.7809 15.8727 95.8812 15.7451 96.0088C15.6175 96.1364 15.5173 96.2868 15.4443 96.46C15.3714 96.6286 15.335 96.8086 15.335 97C15.335 97.1914 15.3714 97.3737 15.4443 97.5469C15.5173 97.7155 15.6175 97.8636 15.7451 97.9912C15.8727 98.1188 16.0208 98.2191 16.1895 98.292C16.3626 98.3649 16.5449 98.4014 16.7363 98.4014H22.4512C22.8385 98.4014 23.2008 98.4766 23.5381 98.627C23.8799 98.7728 24.1761 98.9733 24.4268 99.2285C24.682 99.4792 24.8825 99.7754 25.0283 100.117C25.1742 100.454 25.2471 100.814 25.2471 101.197ZM28.4736 94.5527C28.4736 94.6986 28.4463 94.8353 28.3916 94.9629C28.3369 95.0859 28.2617 95.1953 28.166 95.291C28.0703 95.3867 27.9587 95.4619 27.8311 95.5166C27.7035 95.5713 27.569 95.5986 27.4277 95.5986C27.2819 95.5986 27.1452 95.5713 27.0176 95.5166C26.89 95.4619 26.7783 95.3867 26.6826 95.291C26.5869 95.1953 26.5117 95.0859 26.457 94.9629C26.4023 94.8353 26.375 94.6986 26.375 94.5527C26.375 94.4115 26.4023 94.277 26.457 94.1494C26.5117 94.0218 26.5869 93.9102 26.6826 93.8145C26.7783 93.7188 26.89 93.6436 27.0176 93.5889C27.1452 93.5296 27.2819 93.5 27.4277 93.5C27.569 93.5 27.7035 93.5296 27.8311 93.5889C27.9587 93.6436 28.0703 93.7188 28.166 93.8145C28.2617 93.9102 28.3369 94.0218 28.3916 94.1494C28.4463 94.277 28.4736 94.4115 28.4736 94.5527ZM28.125 104H26.7236V96.3027H28.125V104ZM31.543 104H30.1416V96.3027H37.5244C38.0531 96.3027 38.5498 96.4053 39.0146 96.6104C39.4795 96.8109 39.8828 97.0866 40.2246 97.4375C40.571 97.7839 40.8444 98.1917 41.0449 98.6611C41.2454 99.126 41.3457 99.6227 41.3457 100.151V104H39.9443V100.151C39.9443 99.8141 39.8805 99.4974 39.7529 99.2012C39.6253 98.9049 39.4521 98.6475 39.2334 98.4287C39.0146 98.2054 38.7572 98.0299 38.4609 97.9023C38.1693 97.7702 37.8571 97.7018 37.5244 97.6973H36.4443V104H35.043V97.6973H31.543V104ZM52.3174 100.151C52.3174 100.68 52.2171 101.179 52.0166 101.648C51.8161 102.113 51.5426 102.521 51.1963 102.872C50.8499 103.218 50.4443 103.494 49.9795 103.699C49.5146 103.9 49.0179 104 48.4893 104H45.3447V102.599H48.4893C48.8265 102.594 49.141 102.528 49.4326 102.4C49.7288 102.268 49.9863 102.093 50.2051 101.874C50.4238 101.651 50.597 101.393 50.7246 101.102C50.8522 100.805 50.916 100.489 50.916 100.151C50.916 99.8141 50.8522 99.4974 50.7246 99.2012C50.597 98.9004 50.4238 98.6406 50.2051 98.4219C49.9863 98.1986 49.7288 98.0231 49.4326 97.8955C49.141 97.7633 48.8265 97.6973 48.4893 97.6973H44.6406V106.803H43.2393V96.3027H48.4893C49.0179 96.3073 49.5146 96.4121 49.9795 96.6172C50.4443 96.8177 50.8499 97.0934 51.1963 97.4443C51.5426 97.7907 51.8161 98.1963 52.0166 98.6611C52.2171 99.126 52.3174 99.6227 52.3174 100.151ZM56.583 104H56.2344C55.8926 104 55.5736 103.936 55.2773 103.809C54.9811 103.681 54.7214 103.508 54.498 103.289C54.2747 103.066 54.0993 102.806 53.9717 102.51C53.8441 102.209 53.7803 101.89 53.7803 101.553V93.5H55.1816V101.553C55.1816 101.699 55.209 101.835 55.2637 101.963C55.3184 102.086 55.3936 102.195 55.4893 102.291C55.585 102.387 55.6966 102.462 55.8242 102.517C55.9518 102.571 56.0885 102.599 56.2344 102.599H56.583V104ZM66.7617 98.75C66.7617 99.0918 66.6979 99.4108 66.5703 99.707C66.4427 100.003 66.2673 100.263 66.0439 100.486C65.8252 100.705 65.5654 100.878 65.2646 101.006C64.9684 101.133 64.6517 101.197 64.3145 101.197H58.9482C59.0485 101.402 59.1738 101.591 59.3242 101.765C59.4746 101.938 59.6432 102.086 59.8301 102.209C60.0169 102.332 60.2197 102.428 60.4385 102.496C60.6618 102.564 60.8942 102.599 61.1357 102.599H65.7158V104H61.1357C60.6071 103.995 60.1104 103.893 59.6455 103.692C59.1807 103.487 58.7751 103.212 58.4287 102.865C58.0869 102.514 57.8158 102.106 57.6152 101.642C57.4147 101.177 57.3145 100.68 57.3145 100.151C57.3145 99.6227 57.4147 99.126 57.6152 98.6611C57.8158 98.1963 58.0869 97.7907 58.4287 97.4443C58.7751 97.0934 59.1807 96.8177 59.6455 96.6172C60.1104 96.4121 60.6071 96.3073 61.1357 96.3027H64.3145C64.6517 96.3027 64.9684 96.3665 65.2646 96.4941C65.5654 96.6217 65.8252 96.7972 66.0439 97.0205C66.2673 97.2393 66.4427 97.4967 66.5703 97.793C66.6979 98.0892 66.7617 98.4082 66.7617 98.75ZM64.3145 99.8027C64.4557 99.8027 64.5902 99.7754 64.7178 99.7207C64.8454 99.666 64.957 99.5908 65.0527 99.4951C65.1484 99.3994 65.2236 99.2878 65.2783 99.1602C65.333 99.0326 65.3604 98.8958 65.3604 98.75C65.3604 98.6087 65.333 98.4743 65.2783 98.3467C65.2236 98.2191 65.1484 98.1074 65.0527 98.0117C64.957 97.916 64.8454 97.8408 64.7178 97.7861C64.5902 97.7269 64.4557 97.6973 64.3145 97.6973H61.1357C60.8258 97.6973 60.5342 97.752 60.2607 97.8613C59.9919 97.9707 59.7503 98.1211 59.5361 98.3125C59.3265 98.4993 59.151 98.7227 59.0098 98.9824C58.873 99.2376 58.7842 99.5111 58.7432 99.8027H64.3145ZM83.8174 104H77.5078C76.8288 104 76.2113 103.872 75.6553 103.617C75.0993 103.362 74.623 103.013 74.2266 102.571C73.8346 102.129 73.5316 101.61 73.3174 101.013C73.1032 100.416 72.9961 99.7777 72.9961 99.0986C72.9961 98.4242 73.1032 97.7907 73.3174 97.1982C73.5316 96.6012 73.8346 96.0817 74.2266 95.6396C74.623 95.193 75.0993 94.8421 75.6553 94.5869C76.2113 94.3271 76.8288 94.1973 77.5078 94.1973H83.8174V95.5986H77.5078C77.0247 95.5986 76.5895 95.6921 76.2021 95.8789C75.8193 96.0612 75.4935 96.3118 75.2246 96.6309C74.9603 96.9453 74.7552 97.3145 74.6094 97.7383C74.4681 98.1621 74.3975 98.6156 74.3975 99.0986C74.3975 99.5817 74.4681 100.037 74.6094 100.466C74.7552 100.89 74.9603 101.261 75.2246 101.58C75.4935 101.895 75.8193 102.143 76.2021 102.325C76.5895 102.507 77.0247 102.599 77.5078 102.599H83.8174V104ZM94.4268 104H93.0254V100.151C93.0254 99.8141 92.9616 99.4974 92.834 99.2012C92.7064 98.9049 92.5332 98.6475 92.3145 98.4287C92.0957 98.2054 91.8382 98.0299 91.542 97.9023C91.2503 97.7702 90.9359 97.7018 90.5986 97.6973H86.75V104H85.3486V93.5H86.75V96.3027H90.5986C91.1273 96.3027 91.624 96.4053 92.0889 96.6104C92.5537 96.8109 92.9593 97.0866 93.3057 97.4375C93.652 97.7839 93.9255 98.1917 94.126 98.6611C94.3265 99.126 94.4268 99.6227 94.4268 100.151V104ZM105.084 104H98.084C97.7422 104 97.4232 103.936 97.127 103.809C96.8307 103.681 96.571 103.508 96.3477 103.289C96.1243 103.066 95.9489 102.806 95.8213 102.51C95.6937 102.209 95.6299 101.89 95.6299 101.553C95.6299 101.211 95.6937 100.892 95.8213 100.596C95.9489 100.299 96.1243 100.04 96.3477 99.8164C96.571 99.5931 96.8307 99.4176 97.127 99.29C97.4232 99.1624 97.7422 99.0986 98.084 99.0986H102.979V100.5H98.084C97.9382 100.5 97.8014 100.53 97.6738 100.589C97.5462 100.644 97.4346 100.719 97.3389 100.814C97.2432 100.91 97.168 101.022 97.1133 101.149C97.0586 101.277 97.0312 101.411 97.0312 101.553C97.0312 101.699 97.0586 101.835 97.1133 101.963C97.168 102.086 97.2432 102.195 97.3389 102.291C97.4346 102.387 97.5462 102.462 97.6738 102.517C97.8014 102.571 97.9382 102.599 98.084 102.599H103.683V98.75C103.683 98.6087 103.653 98.4743 103.594 98.3467C103.539 98.2191 103.464 98.1074 103.368 98.0117C103.272 97.916 103.161 97.8408 103.033 97.7861C102.906 97.7269 102.771 97.6973 102.63 97.6973H97.0312V96.3027H102.63C102.972 96.3027 103.291 96.3665 103.587 96.4941C103.883 96.6217 104.143 96.7972 104.366 97.0205C104.59 97.2393 104.765 97.4967 104.893 97.793C105.02 98.0892 105.084 98.4082 105.084 98.75V104ZM109.753 104H108.352V97.6973H106.253V96.3027H108.352V93.5H109.753V96.3027H114.654V97.6973H109.753V104Z" fill="#FD5430"/>
<path d="M25.0283 102.298L25.2578 102.397L25.2583 102.396L25.0283 102.298ZM24.4268 103.187L24.6035 103.363L24.4268 103.187ZM23.5381 103.781L23.44 103.551L23.4389 103.552L23.5381 103.781ZM13.9336 104H13.6836V104.25H13.9336V104ZM13.9336 102.599V102.349H13.6836V102.599H13.9336ZM23.4355 102.188L23.2587 102.012L23.2556 102.015L23.4355 102.188ZM23.7363 101.744L23.9658 101.843L23.9667 101.841L23.7363 101.744ZM23.7363 100.657L23.9658 100.558L23.7363 100.657ZM23.4355 100.213L23.2556 100.386L23.2588 100.39L23.4355 100.213ZM14.7539 98.9893L14.5755 99.1645L14.5787 99.1676L14.7539 98.9893ZM14.1523 98.0938L13.9224 98.1919L13.9235 98.1944L14.1523 98.0938ZM14.1523 95.9131L13.9235 95.8124L13.9224 95.815L14.1523 95.9131ZM14.7539 95.0244L14.5771 94.8476L14.7539 95.0244ZM15.6494 94.4229L15.7475 94.6528L15.7501 94.6517L15.6494 94.4229ZM24.5498 94.1973H24.7998V93.9473H24.5498V94.1973ZM24.5498 95.5986V95.8486H24.7998V95.5986H24.5498ZM16.1895 95.708L16.0924 95.4776L16.0902 95.4785L16.1895 95.708ZM15.7451 96.0088L15.9219 96.1856L15.7451 96.0088ZM15.4443 96.46L15.6738 96.5592L15.6747 96.557L15.4443 96.46ZM15.4443 97.5469L15.2139 97.6439L15.2149 97.6461L15.4443 97.5469ZM16.1895 98.292L16.0902 98.5215L16.0924 98.5224L16.1895 98.292ZM23.5381 98.627L23.4363 98.8553L23.44 98.8569L23.5381 98.627ZM24.4268 99.2285L24.2484 99.4037L24.2516 99.4069L24.4268 99.2285ZM25.0283 100.117L24.7984 100.215L24.7989 100.216L25.0283 100.117ZM24.9971 101.197C24.9971 101.557 24.9303 101.891 24.7984 102.2L25.2583 102.396C25.418 102.021 25.4971 101.621 25.4971 101.197H24.9971ZM24.7989 102.199C24.6653 102.507 24.4825 102.777 24.25 103.01L24.6035 103.363C24.8814 103.085 25.0997 102.763 25.2578 102.397L24.7989 102.199ZM24.25 103.01C24.023 103.237 23.7538 103.417 23.44 103.551L23.6362 104.011C24.0059 103.853 24.3292 103.638 24.6035 103.363L24.25 103.01ZM23.4389 103.552C23.1346 103.683 22.8063 103.75 22.4512 103.75V104.25C22.8708 104.25 23.2671 104.171 23.6373 104.011L23.4389 103.552ZM22.4512 103.75H13.9336V104.25H22.4512V103.75ZM14.1836 104V102.599H13.6836V104H14.1836ZM13.9336 102.849H22.4512V102.349H13.9336V102.849ZM22.4512 102.849C22.679 102.849 22.8953 102.806 23.0973 102.719L22.8988 102.26C22.7636 102.318 22.6153 102.349 22.4512 102.349V102.849ZM23.0973 102.719C23.2951 102.633 23.4687 102.514 23.6155 102.362L23.2556 102.015C23.1563 102.118 23.0382 102.2 22.8988 102.26L23.0973 102.719ZM23.6123 102.365C23.7626 102.215 23.8806 102.04 23.9658 101.843L23.5069 101.645C23.4462 101.785 23.3637 101.907 23.2588 102.012L23.6123 102.365ZM23.9667 101.841C24.0528 101.637 24.0957 101.421 24.0957 101.197H23.5957C23.5957 101.356 23.5657 101.505 23.5059 101.647L23.9667 101.841ZM24.0957 101.197C24.0957 100.973 24.0528 100.759 23.9658 100.558L23.5069 100.756C23.5657 100.892 23.5957 101.039 23.5957 101.197H24.0957ZM23.9658 100.558C23.8806 100.361 23.7626 100.186 23.6123 100.036L23.2588 100.39C23.3637 100.495 23.4462 100.616 23.5069 100.756L23.9658 100.558ZM23.6155 100.039C23.4687 99.8871 23.2951 99.7682 23.0973 99.6826L22.8988 100.142C23.0382 100.202 23.1563 100.283 23.2556 100.386L23.6155 100.039ZM23.0973 99.6826C22.8953 99.5953 22.679 99.5527 22.4512 99.5527V100.053C22.6153 100.053 22.7636 100.083 22.8988 100.142L23.0973 99.6826ZM22.4512 99.5527H16.7363V100.053H22.4512V99.5527ZM16.7363 99.5527C16.3862 99.5527 16.0574 99.4862 15.7475 99.354L15.5513 99.8139C15.9251 99.9734 16.3208 100.053 16.7363 100.053V99.5527ZM15.7475 99.354C15.4333 99.22 15.1612 99.0389 14.9291 98.8109L14.5787 99.1676C14.857 99.441 15.182 99.6563 15.5513 99.8139L15.7475 99.354ZM14.9323 98.8141C14.7037 98.5814 14.5199 98.3084 14.3812 97.9931L13.9235 98.1944C14.0855 98.5627 14.3028 98.8867 14.5755 99.1644L14.9323 98.8141ZM14.3823 97.9956C14.2502 97.6862 14.1836 97.3551 14.1836 97H13.6836C13.6836 97.4196 13.7628 97.8177 13.9224 98.1919L14.3823 97.9956ZM14.1836 97C14.1836 96.6499 14.2501 96.321 14.3823 96.0112L13.9224 95.815C13.7629 96.1887 13.6836 96.5845 13.6836 97H14.1836ZM14.3812 96.0138C14.5198 95.6988 14.7031 95.4288 14.9307 95.2012L14.5771 94.8476C14.3034 95.1214 14.0857 95.4438 13.9235 95.8124L14.3812 96.0138ZM14.9307 95.2012C15.1626 94.9692 15.4342 94.7865 15.7475 94.6528L15.5513 94.1929C15.181 94.3509 14.8556 94.5692 14.5771 94.8476L14.9307 95.2012ZM15.7501 94.6517C16.0594 94.5156 16.3873 94.4473 16.7363 94.4473V93.9473C16.3197 93.9473 15.9231 94.0293 15.5487 94.194L15.7501 94.6517ZM16.7363 94.4473H24.5498V93.9473H16.7363V94.4473ZM24.2998 94.1973V95.5986H24.7998V94.1973H24.2998ZM24.5498 95.3486H16.7363V95.8486H24.5498V95.3486ZM16.7363 95.3486C16.5122 95.3486 16.2969 95.3915 16.0924 95.4776L16.2865 95.9384C16.4284 95.8787 16.5776 95.8486 16.7363 95.8486V95.3486ZM16.0902 95.4785C15.8932 95.5637 15.7186 95.6817 15.5683 95.832L15.9219 96.1856C16.0268 96.0807 16.1485 95.9981 16.2887 95.9375L16.0902 95.4785ZM15.5683 95.832C15.4169 95.9834 15.2989 96.1612 15.2139 96.3629L15.6747 96.557C15.7356 96.4124 15.8181 96.2894 15.9219 96.1856L15.5683 95.832ZM15.2149 96.3607C15.1278 96.562 15.085 96.7759 15.085 97H15.585C15.585 96.8413 15.615 96.6952 15.6738 96.5592L15.2149 96.3607ZM15.085 97C15.085 97.2241 15.1278 97.4394 15.2139 97.6439L15.6747 97.4499C15.615 97.308 15.585 97.1587 15.585 97H15.085ZM15.2149 97.6461C15.3001 97.8431 15.418 98.0177 15.5683 98.168L15.9219 97.8144C15.817 97.7095 15.7344 97.5879 15.6738 97.4476L15.2149 97.6461ZM15.5683 98.168C15.7186 98.3183 15.8932 98.4363 16.0902 98.5215L16.2887 98.0625C16.1485 98.0019 16.0268 97.9193 15.9219 97.8144L15.5683 98.168ZM16.0924 98.5224C16.2969 98.6085 16.5122 98.6514 16.7363 98.6514V98.1514C16.5776 98.1514 16.4284 98.1213 16.2865 98.0616L16.0924 98.5224ZM16.7363 98.6514H22.4512V98.1514H16.7363V98.6514ZM22.4512 98.6514C22.8052 98.6514 23.1326 98.7199 23.4363 98.8553L23.6399 98.3986C23.2691 98.2332 22.8719 98.1514 22.4512 98.1514V98.6514ZM23.44 98.8569C23.7529 98.9904 24.0215 99.1727 24.2484 99.4037L24.6051 99.0533C24.3307 98.7739 24.0069 98.5552 23.6362 98.397L23.44 98.8569ZM24.2516 99.4069C24.4826 99.6337 24.6649 99.9024 24.7984 100.215L25.2583 100.019C25.1001 99.6484 24.8814 99.3246 24.6019 99.0502L24.2516 99.4069ZM24.7989 100.216C24.9306 100.521 24.9971 100.847 24.9971 101.197H25.4971C25.4971 100.782 25.4177 100.388 25.2578 100.018L24.7989 100.216ZM28.3916 94.9629L28.6201 95.0644L28.6214 95.0614L28.3916 94.9629ZM27.8311 95.5166L27.7326 95.2868L27.8311 95.5166ZM26.457 94.9629L26.2272 95.0614L26.2286 95.0644L26.457 94.9629ZM27.0176 93.5889L27.1161 93.8188L27.1229 93.8156L27.0176 93.5889ZM27.8311 93.5889L27.7257 93.8157L27.7326 93.8187L27.8311 93.5889ZM28.125 104V104.25H28.375V104H28.125ZM26.7236 104H26.4736V104.25H26.7236V104ZM26.7236 96.3027V96.0527H26.4736V96.3027H26.7236ZM28.125 96.3027H28.375V96.0527H28.125V96.3027ZM28.2236 94.5527C28.2236 94.6665 28.2025 94.7695 28.1618 94.8644L28.6214 95.0614C28.6901 94.9011 28.7236 94.7307 28.7236 94.5527H28.2236ZM28.1631 94.8614C28.121 94.9562 28.0634 95.0401 27.9892 95.1142L28.3428 95.4678C28.4601 95.3505 28.5528 95.2157 28.6201 95.0644L28.1631 94.8614ZM27.9892 95.1142C27.9166 95.1869 27.8317 95.2443 27.7326 95.2868L27.9295 95.7464C28.0856 95.6795 28.224 95.5866 28.3428 95.4678L27.9892 95.1142ZM27.7326 95.2868C27.6366 95.3279 27.5358 95.3486 27.4277 95.3486V95.8486C27.6023 95.8486 27.7703 95.8147 27.9295 95.7464L27.7326 95.2868ZM27.4277 95.3486C27.314 95.3486 27.211 95.3275 27.1161 95.2868L26.9191 95.7464C27.0794 95.8151 27.2498 95.8486 27.4277 95.8486V95.3486ZM27.1161 95.2868C27.0169 95.2443 26.932 95.1869 26.8594 95.1142L26.5058 95.4678C26.6246 95.5866 26.763 95.6795 26.9191 95.7464L27.1161 95.2868ZM26.8594 95.1142C26.7853 95.0401 26.7276 94.9562 26.6855 94.8614L26.2286 95.0644C26.2958 95.2157 26.3886 95.3505 26.5058 95.4678L26.8594 95.1142ZM26.6868 94.8644C26.6461 94.7695 26.625 94.6665 26.625 94.5527H26.125C26.125 94.7307 26.1586 94.9011 26.2272 95.0614L26.6868 94.8644ZM26.625 94.5527C26.625 94.4447 26.6457 94.3438 26.6868 94.2479L26.2272 94.0509C26.159 94.2102 26.125 94.3782 26.125 94.5527H26.625ZM26.6868 94.2479C26.7293 94.1488 26.7868 94.0639 26.8594 93.9912L26.5058 93.6377C26.3871 93.7565 26.2941 93.8949 26.2272 94.0509L26.6868 94.2479ZM26.8594 93.9912C26.932 93.9186 27.0169 93.8611 27.1161 93.8187L26.9191 93.3591C26.763 93.426 26.6246 93.5189 26.5058 93.6377L26.8594 93.9912ZM27.1229 93.8156C27.2163 93.7723 27.3169 93.75 27.4277 93.75V93.25C27.2469 93.25 27.0741 93.287 26.9123 93.3621L27.1229 93.8156ZM27.4277 93.75C27.5328 93.75 27.6313 93.7718 27.7258 93.8156L27.9363 93.3621C27.7756 93.2875 27.6052 93.25 27.4277 93.25V93.75ZM27.7326 93.8187C27.8317 93.8611 27.9166 93.9186 27.9892 93.9912L28.3428 93.6377C28.224 93.5189 28.0856 93.426 27.9295 93.3591L27.7326 93.8187ZM27.9892 93.9912C28.0619 94.0639 28.1193 94.1488 28.1618 94.2479L28.6214 94.0509C28.5545 93.8949 28.4616 93.7565 28.3428 93.6377L27.9892 93.9912ZM28.1618 94.2479C28.2029 94.3438 28.2236 94.4447 28.2236 94.5527H28.7236C28.7236 94.3782 28.6897 94.2102 28.6214 94.0509L28.1618 94.2479ZM28.125 103.75H26.7236V104.25H28.125V103.75ZM26.9736 104V96.3027H26.4736V104H26.9736ZM26.7236 96.5527H28.125V96.0527H26.7236V96.5527ZM27.875 96.3027V104H28.375V96.3027H27.875ZM31.543 104V104.25H31.793V104H31.543ZM30.1416 104H29.8916V104.25H30.1416V104ZM30.1416 96.3027V96.0527H29.8916V96.3027H30.1416ZM39.0146 96.6104L38.9137 96.8391L38.9156 96.8399L39.0146 96.6104ZM40.2246 97.4375L40.0455 97.612L40.0478 97.6143L40.2246 97.4375ZM41.0449 98.6611L40.815 98.7593L40.8154 98.7602L41.0449 98.6611ZM41.3457 104V104.25H41.5957V104H41.3457ZM39.9443 104H39.6943V104.25H39.9443V104ZM39.2334 98.4287L39.0548 98.6037L39.0566 98.6055L39.2334 98.4287ZM38.4609 97.9023L38.3577 98.1301L38.362 98.1319L38.4609 97.9023ZM37.5244 97.6973L37.5278 97.4473H37.5244V97.6973ZM36.4443 97.6973V97.4473H36.1943V97.6973H36.4443ZM36.4443 104V104.25H36.6943V104H36.4443ZM35.043 104H34.793V104.25H35.043V104ZM35.043 97.6973H35.293V97.4473H35.043V97.6973ZM31.543 97.6973V97.4473H31.293V97.6973H31.543ZM31.543 103.75H30.1416V104.25H31.543V103.75ZM30.3916 104V96.3027H29.8916V104H30.3916ZM30.1416 96.5527H37.5244V96.0527H30.1416V96.5527ZM37.5244 96.5527C38.0197 96.5527 38.482 96.6486 38.9137 96.8391L39.1156 96.3816C38.6176 96.1619 38.0864 96.0527 37.5244 96.0527V96.5527ZM38.9156 96.8399C39.3515 97.0279 39.7273 97.2852 40.0455 97.6119L40.4037 97.2631C40.0383 96.8879 39.6075 96.5938 39.1137 96.3808L38.9156 96.8399ZM40.0478 97.6143C40.3707 97.9371 40.6265 98.318 40.815 98.7593L41.2748 98.5629C41.0623 98.0654 40.7712 97.6306 40.4014 97.2607L40.0478 97.6143ZM40.8154 98.7602C41.0018 99.1923 41.0957 99.6552 41.0957 100.151H41.5957C41.5957 99.5902 41.4891 99.0596 41.2745 98.5621L40.8154 98.7602ZM41.0957 100.151V104H41.5957V100.151H41.0957ZM41.3457 103.75H39.9443V104.25H41.3457V103.75ZM40.1943 104V100.151H39.6943V104H40.1943ZM40.1943 100.151C40.1943 99.7817 40.1242 99.4311 39.9825 99.1023L39.5233 99.3001C39.6369 99.5636 39.6943 99.8466 39.6943 100.151H40.1943ZM39.9825 99.1023C39.8429 98.7782 39.6523 98.494 39.4102 98.2519L39.0566 98.6055C39.252 98.8009 39.4077 99.0317 39.5233 99.3001L39.9825 99.1023ZM39.412 98.2538C39.1698 98.0065 38.885 97.8128 38.5598 97.6727L38.362 98.1319C38.6294 98.2471 38.8595 98.4043 39.0548 98.6037L39.412 98.2538ZM38.5641 97.6746C38.2399 97.5277 37.8936 97.4523 37.5278 97.4473L37.521 97.9472C37.8206 97.9513 38.0987 98.0127 38.3578 98.1301L38.5641 97.6746ZM37.5244 97.4473H36.4443V97.9473H37.5244V97.4473ZM36.1943 97.6973V104H36.6943V97.6973H36.1943ZM36.4443 103.75H35.043V104.25H36.4443V103.75ZM35.293 104V97.6973H34.793V104H35.293ZM35.043 97.4473H31.543V97.9473H35.043V97.4473ZM31.293 97.6973V104H31.793V97.6973H31.293ZM52.0166 101.648L52.2462 101.747L52.2465 101.747L52.0166 101.648ZM51.1963 102.872L51.3731 103.049L51.3742 103.048L51.1963 102.872ZM49.9795 103.699L50.0785 103.929L50.0804 103.928L49.9795 103.699ZM45.3447 104H45.0947V104.25H45.3447V104ZM45.3447 102.599V102.349H45.0947V102.599H45.3447ZM48.4893 102.599V102.849L48.4926 102.849L48.4893 102.599ZM49.4326 102.4L49.5328 102.629L49.5345 102.629L49.4326 102.4ZM50.2051 101.874L50.3819 102.051L50.3837 102.049L50.2051 101.874ZM50.7246 101.102L50.9537 101.202L50.9542 101.2L50.7246 101.102ZM50.7246 99.2012L50.4945 99.2988L50.495 99.3001L50.7246 99.2012ZM50.2051 98.4219L50.0265 98.5968L50.0283 98.5987L50.2051 98.4219ZM49.4326 97.8955L49.3294 98.1233L49.3337 98.1251L49.4326 97.8955ZM44.6406 97.6973V97.4473H44.3906V97.6973H44.6406ZM44.6406 106.803V107.053H44.8906V106.803H44.6406ZM43.2393 106.803H42.9893V107.053H43.2393V106.803ZM43.2393 96.3027V96.0527H42.9893V96.3027H43.2393ZM48.4893 96.3027L48.4914 96.0527H48.4893V96.3027ZM49.9795 96.6172L49.8786 96.8459L49.8805 96.8467L49.9795 96.6172ZM51.1963 97.4443L51.0184 97.62L51.0195 97.6211L51.1963 97.4443ZM52.0674 100.151C52.0674 100.647 51.9735 101.113 51.7867 101.55L52.2465 101.747C52.4608 101.245 52.5674 100.713 52.5674 100.151H52.0674ZM51.787 101.549C51.5985 101.987 51.3423 102.368 51.0184 102.696L51.3742 103.048C51.743 102.674 52.0337 102.24 52.2462 101.747L51.787 101.549ZM51.0195 102.695C50.6958 103.019 50.3162 103.277 49.8786 103.47L50.0804 103.928C50.5725 103.711 51.004 103.418 51.3731 103.049L51.0195 102.695ZM49.8805 103.47C49.4483 103.656 48.9854 103.75 48.4893 103.75V104.25C49.0504 104.25 49.581 104.143 50.0785 103.929L49.8805 103.47ZM48.4893 103.75H45.3447V104.25H48.4893V103.75ZM45.5947 104V102.599H45.0947V104H45.5947ZM45.3447 102.849H48.4893V102.349H45.3447V102.849ZM48.4926 102.849C48.8612 102.844 49.2088 102.771 49.5328 102.629L49.3324 102.171C49.0731 102.285 48.7918 102.345 48.4859 102.349L48.4926 102.849ZM49.5345 102.629C49.8572 102.485 50.1405 102.292 50.3819 102.051L50.0283 101.697C49.8322 101.893 49.6004 102.052 49.3308 102.172L49.5345 102.629ZM50.3837 102.049C50.624 101.804 50.8141 101.521 50.9536 101.202L50.4956 101.001C50.3799 101.266 50.2236 101.498 50.0265 101.699L50.3837 102.049ZM50.9542 101.2C51.0959 100.872 51.166 100.521 51.166 100.151H50.666C50.666 100.456 50.6085 100.739 50.495 101.003L50.9542 101.2ZM51.166 100.151C51.166 99.7817 51.0959 99.4311 50.9542 99.1023L50.495 99.3001C50.6085 99.5636 50.666 99.8466 50.666 100.151H51.166ZM50.9548 99.1035C50.8153 98.7749 50.6246 98.4878 50.3819 98.2451L50.0283 98.5987C50.2231 98.7934 50.3787 99.0259 50.4945 99.2988L50.9548 99.1035ZM50.3837 98.2469C50.1414 97.9997 49.8566 97.806 49.5315 97.6659L49.3337 98.1251C49.601 98.2403 49.8312 98.3975 50.0265 98.5968L50.3837 98.2469ZM49.5358 97.6678C49.21 97.5202 48.8602 97.4473 48.4893 97.4473V97.9473C48.7928 97.9473 49.0719 98.0065 49.3294 98.1232L49.5358 97.6678ZM48.4893 97.4473H44.6406V97.9473H48.4893V97.4473ZM44.3906 97.6973V106.803H44.8906V97.6973H44.3906ZM44.6406 106.553H43.2393V107.053H44.6406V106.553ZM43.4893 106.803V96.3027H42.9893V106.803H43.4893ZM43.2393 96.5527H48.4893V96.0527H43.2393V96.5527ZM48.4871 96.5527C48.9831 96.557 49.4461 96.6551 49.8786 96.8459L50.0804 96.3885C49.5832 96.1691 49.0527 96.0576 48.4914 96.0527L48.4871 96.5527ZM49.8805 96.8467C50.3166 97.0349 50.6952 97.2925 51.0184 97.62L51.3742 97.2687C51.0047 96.8943 50.5721 96.6005 50.0785 96.3876L49.8805 96.8467ZM51.0195 97.6211C51.3428 97.9444 51.5986 98.3233 51.787 98.7602L52.2462 98.5621C52.0335 98.0692 51.7425 97.637 51.3731 97.2676L51.0195 97.6211ZM51.787 98.7602C51.9735 99.1923 52.0674 99.6552 52.0674 100.151H52.5674C52.5674 99.5902 52.4608 99.0596 52.2462 98.5621L51.787 98.7602ZM56.583 104V104.25H56.833V104H56.583ZM54.498 103.289L54.3213 103.466L54.3231 103.468L54.498 103.289ZM53.9717 102.51L53.7415 102.607L53.7421 102.609L53.9717 102.51ZM53.7803 93.5V93.25H53.5303V93.5H53.7803ZM55.1816 93.5H55.4316V93.25H55.1816V93.5ZM55.2637 101.963L55.0339 102.061L55.0352 102.064L55.2637 101.963ZM56.583 102.599H56.833V102.349H56.583V102.599ZM56.583 103.75H56.2344V104.25H56.583V103.75ZM56.2344 103.75C55.9245 103.75 55.6394 103.692 55.3762 103.579L55.1784 104.038C55.5077 104.18 55.8606 104.25 56.2344 104.25V103.75ZM55.3762 103.579C55.1074 103.463 54.8736 103.307 54.673 103.11L54.3231 103.468C54.5691 103.709 54.8549 103.899 55.1784 104.038L55.3762 103.579ZM54.6748 103.112C54.4744 102.912 54.3166 102.679 54.2013 102.411L53.7421 102.609C53.8819 102.933 54.0751 103.22 54.3213 103.466L54.6748 103.112ZM54.2018 102.412C54.0877 102.143 54.0303 101.858 54.0303 101.553H53.5303C53.5303 101.922 53.6004 102.275 53.7415 102.607L54.2018 102.412ZM54.0303 101.553V93.5H53.5303V101.553H54.0303ZM53.7803 93.75H55.1816V93.25H53.7803V93.75ZM54.9316 93.5V101.553H55.4316V93.5H54.9316ZM54.9316 101.553C54.9316 101.731 54.9652 101.901 55.0339 102.061L55.4935 101.864C55.4528 101.769 55.4316 101.666 55.4316 101.553H54.9316ZM55.0352 102.064C55.1024 102.216 55.1952 102.351 55.3125 102.468L55.666 102.114C55.5919 102.04 55.5343 101.956 55.4921 101.861L55.0352 102.064ZM55.3125 102.468C55.4313 102.587 55.5697 102.68 55.7257 102.746L55.9227 102.287C55.8236 102.244 55.7387 102.187 55.666 102.114L55.3125 102.468ZM55.7257 102.746C55.886 102.815 56.0564 102.849 56.2344 102.849V102.349C56.1207 102.349 56.0176 102.327 55.9227 102.287L55.7257 102.746ZM56.2344 102.849H56.583V102.349H56.2344V102.849ZM56.333 102.599V104H56.833V102.599H56.333ZM66.0439 100.486L65.8672 100.31L66.0439 100.486ZM65.2646 101.006L65.167 100.776L65.1657 100.776L65.2646 101.006ZM58.9482 101.197V100.947H58.5477L58.7236 101.307L58.9482 101.197ZM60.4385 102.496L60.3639 102.735L60.3653 102.735L60.4385 102.496ZM65.7158 102.599H65.9658V102.349H65.7158V102.599ZM65.7158 104V104.25H65.9658V104H65.7158ZM61.1357 104L61.1336 104.25H61.1357V104ZM59.6455 103.692L59.5446 103.921L59.5465 103.922L59.6455 103.692ZM58.4287 102.865L58.2496 103.04L58.2519 103.042L58.4287 102.865ZM57.6152 101.642L57.3857 101.741L57.6152 101.642ZM57.6152 98.6611L57.3857 98.5621L57.6152 98.6611ZM58.4287 97.4443L58.2508 97.2687L58.2508 97.2687L58.4287 97.4443ZM59.6455 96.6172L59.7445 96.8467L59.7464 96.8459L59.6455 96.6172ZM61.1357 96.3027V96.0527L61.1336 96.0527L61.1357 96.3027ZM65.2646 96.4941L65.1657 96.7237L65.167 96.7243L65.2646 96.4941ZM66.0439 97.0205L65.8653 97.1955L65.869 97.1991L66.0439 97.0205ZM64.7178 99.7207L64.6193 99.4909L64.7178 99.7207ZM64.7178 97.7861L64.6124 98.013L64.6193 98.0159L64.7178 97.7861ZM60.2607 97.8613L60.1679 97.6292L60.1665 97.6298L60.2607 97.8613ZM59.5361 98.3125L59.7025 98.4991L59.7027 98.4989L59.5361 98.3125ZM59.0098 98.9824L58.7901 98.863L58.7894 98.8644L59.0098 98.9824ZM58.7432 99.8027L58.4956 99.7679L58.4555 100.053H58.7432V99.8027ZM66.5117 98.75C66.5117 99.0598 66.4541 99.345 66.3407 99.6081L66.7999 99.8059C66.9418 99.4766 67.0117 99.1237 67.0117 98.75H66.5117ZM66.3407 99.6081C66.2254 99.8759 66.0676 100.109 65.8672 100.31L66.2207 100.663C66.4669 100.417 66.6601 100.131 66.7999 99.8059L66.3407 99.6081ZM65.8672 100.31C65.6724 100.504 65.4399 100.66 65.167 100.776L65.3623 101.236C65.6909 101.097 65.978 100.906 66.2207 100.663L65.8672 100.31ZM65.1657 100.776C64.9022 100.89 64.6193 100.947 64.3145 100.947V101.447C64.6841 101.447 65.0347 101.377 65.3636 101.235L65.1657 100.776ZM64.3145 100.947H58.9482V101.447H64.3145V100.947ZM58.7236 101.307C58.8335 101.532 58.9709 101.739 59.1355 101.929L59.513 101.601C59.3768 101.444 59.2635 101.273 59.1728 101.087L58.7236 101.307ZM59.1355 101.929C59.3004 102.119 59.4862 102.282 59.6926 102.418L59.9676 102C59.8003 101.89 59.6488 101.757 59.513 101.601L59.1355 101.929ZM59.6926 102.418C59.8994 102.554 60.1234 102.66 60.3639 102.735L60.513 102.257C60.316 102.196 60.1345 102.11 59.9676 102L59.6926 102.418ZM60.3653 102.735C60.6131 102.811 60.8703 102.849 61.1357 102.849V102.349C60.9182 102.349 60.7104 102.318 60.5117 102.257L60.3653 102.735ZM61.1357 102.849H65.7158V102.349H61.1357V102.849ZM65.4658 102.599V104H65.9658V102.599H65.4658ZM65.7158 103.75H61.1357V104.25H65.7158V103.75ZM61.1379 103.75C60.6411 103.746 60.1774 103.65 59.7445 103.463L59.5465 103.922C60.0433 104.136 60.5731 104.245 61.1336 104.25L61.1379 103.75ZM59.7464 103.464C59.3088 103.271 58.9292 103.012 58.6055 102.688L58.2519 103.042C58.621 103.411 59.0525 103.704 59.5446 103.921L59.7464 103.464ZM58.6078 102.691C58.288 102.362 58.0336 101.98 57.8448 101.543L57.3857 101.741C57.5979 102.233 57.8858 102.666 58.2496 103.04L58.6078 102.691ZM57.8448 101.543C57.6584 101.11 57.5645 100.647 57.5645 100.151H57.0645C57.0645 100.713 57.1711 101.243 57.3857 101.741L57.8448 101.543ZM57.5645 100.151C57.5645 99.6552 57.6584 99.1923 57.8448 98.7602L57.3857 98.5621C57.1711 99.0596 57.0645 99.5902 57.0645 100.151H57.5645ZM57.8448 98.7602C58.0335 98.3227 58.2875 97.9433 58.6067 97.6199L58.2508 97.2687C57.8863 97.6381 57.598 98.0699 57.3857 98.5621L57.8448 98.7602ZM58.6066 97.62C58.9298 97.2925 59.3084 97.0349 59.7445 96.8467L59.5465 96.3876C59.0529 96.6005 58.6203 96.8943 58.2508 97.2687L58.6066 97.62ZM59.7464 96.8459C60.1789 96.6551 60.6419 96.557 61.1379 96.5527L61.1336 96.0527C60.5723 96.0576 60.0418 96.1691 59.5446 96.3885L59.7464 96.8459ZM61.1357 96.5527H64.3145V96.0527H61.1357V96.5527ZM64.3145 96.5527C64.6193 96.5527 64.9022 96.6102 65.1657 96.7237L65.3636 96.2645C65.0347 96.1229 64.6841 96.0527 64.3145 96.0527V96.5527ZM65.167 96.7243C65.4388 96.8396 65.6707 96.9968 65.8654 97.1955L66.2225 96.8456C65.9797 96.5976 65.692 96.4039 65.3623 96.264L65.167 96.7243ZM65.869 97.1991C66.0683 97.3944 66.2256 97.6245 66.3407 97.8919L66.7999 97.6941C66.6599 97.3689 66.4662 97.0841 66.2189 96.8419L65.869 97.1991ZM66.3407 97.8919C66.4541 98.155 66.5117 98.4402 66.5117 98.75H67.0117C67.0117 98.3763 66.9418 98.0234 66.7999 97.6941L66.3407 97.8919ZM64.3145 100.053C64.489 100.053 64.657 100.019 64.8163 99.9505L64.6193 99.4909C64.5234 99.532 64.4225 99.5527 64.3145 99.5527V100.053ZM64.8163 99.9505C64.9723 99.8836 65.1107 99.7907 65.2295 99.6719L64.876 99.3183C64.8033 99.391 64.7184 99.4484 64.6193 99.4909L64.8163 99.9505ZM65.2295 99.6719C65.3483 99.5531 65.4412 99.4147 65.5081 99.2586L65.0485 99.0617C65.006 99.1608 64.9486 99.2457 64.876 99.3183L65.2295 99.6719ZM65.5081 99.2586C65.5768 99.0984 65.6104 98.928 65.6104 98.75H65.1104C65.1104 98.8637 65.0892 98.9668 65.0485 99.0617L65.5081 99.2586ZM65.6104 98.75C65.6104 98.5755 65.5764 98.4075 65.5081 98.2482L65.0485 98.4452C65.0896 98.5411 65.1104 98.642 65.1104 98.75H65.6104ZM65.5081 98.2482C65.4412 98.0921 65.3483 97.9537 65.2295 97.8349L64.876 98.1885C64.9486 98.2611 65.006 98.346 65.0485 98.4452L65.5081 98.2482ZM65.2295 97.8349C65.1107 97.7162 64.9723 97.6232 64.8163 97.5563L64.6193 98.0159C64.7184 98.0584 64.8033 98.1159 64.876 98.1885L65.2295 97.8349ZM64.8231 97.5594C64.6623 97.4848 64.4919 97.4473 64.3145 97.4473V97.9473C64.4195 97.9473 64.518 97.969 64.6125 98.0129L64.8231 97.5594ZM64.3145 97.4473H61.1357V97.9473H64.3145V97.4473ZM61.1357 97.4473C60.7957 97.4473 60.4724 97.5074 60.1679 97.6292L60.3536 98.0934C60.596 97.9965 60.856 97.9473 61.1357 97.9473V97.4473ZM60.1665 97.6298C59.8714 97.7498 59.6053 97.9154 59.3696 98.1261L59.7027 98.4989C59.8953 98.3268 60.1123 98.1916 60.3549 98.0929L60.1665 97.6298ZM59.3698 98.1259C59.1375 98.3329 58.9444 98.5793 58.7901 98.863L59.2294 99.1019C59.3576 98.866 59.5155 98.6658 59.7025 98.4991L59.3698 98.1259ZM58.7894 98.8644C58.6385 99.146 58.5406 99.4476 58.4956 99.7679L58.9907 99.8375C59.0277 99.5745 59.1076 99.3293 59.2301 99.1005L58.7894 98.8644ZM58.7432 100.053H64.3145V99.5527H58.7432V100.053ZM83.8174 104V104.25H84.0674V104H83.8174ZM75.6553 103.617L75.551 103.844L75.6553 103.617ZM74.2266 102.571L74.0395 102.737L74.0405 102.738L74.2266 102.571ZM73.3174 101.013L73.0821 101.097L73.3174 101.013ZM73.3174 97.1982L73.5525 97.2832L73.5527 97.2827L73.3174 97.1982ZM74.2266 95.6396L74.0396 95.4737L74.0395 95.4738L74.2266 95.6396ZM75.6553 94.5869L75.7596 94.8141L75.7611 94.8134L75.6553 94.5869ZM83.8174 94.1973H84.0674V93.9473H83.8174V94.1973ZM83.8174 95.5986V95.8486H84.0674V95.5986H83.8174ZM76.2021 95.8789L76.3096 96.1046L76.3108 96.1041L76.2021 95.8789ZM75.2246 96.6309L75.0335 96.4697L75.0332 96.47L75.2246 96.6309ZM74.6094 97.7383L74.373 97.6569L74.3722 97.6592L74.6094 97.7383ZM74.6094 100.466L74.3719 100.544L74.373 100.547L74.6094 100.466ZM75.2246 101.58L75.0321 101.74L75.0346 101.743L75.2246 101.58ZM76.2021 102.325L76.0947 102.551L76.0957 102.551L76.2021 102.325ZM83.8174 102.599H84.0674V102.349H83.8174V102.599ZM83.8174 103.75H77.5078V104.25H83.8174V103.75ZM77.5078 103.75C76.8608 103.75 76.2794 103.629 75.7596 103.39L75.551 103.844C76.1431 104.116 76.7968 104.25 77.5078 104.25V103.75ZM75.7596 103.39C75.2337 103.149 74.7856 102.82 74.4127 102.404L74.0405 102.738C74.4605 103.207 74.9648 103.575 75.551 103.844L75.7596 103.39ZM74.4136 102.405C74.0443 101.989 73.7569 101.498 73.5527 100.928L73.0821 101.097C73.3062 101.722 73.6249 102.27 74.0395 102.737L74.4136 102.405ZM73.5527 100.928C73.3489 100.36 73.2461 99.7509 73.2461 99.0986H72.7461C72.7461 99.8044 72.8575 100.471 73.0821 101.097L73.5527 100.928ZM73.2461 99.0986C73.2461 98.4511 73.3488 97.8466 73.5525 97.2832L73.0823 97.1132C72.8576 97.7348 72.7461 98.3972 72.7461 99.0986H73.2461ZM73.5527 97.2827C73.7569 96.7134 74.0443 96.222 74.4136 95.8055L74.0395 95.4738C73.6249 95.9414 73.3062 96.4891 73.0821 97.1138L73.5527 97.2827ZM74.4135 95.8056C74.7864 95.3856 75.2343 95.0552 75.7596 94.8141L75.551 94.3597C74.9643 94.629 74.4597 95.0005 74.0396 95.4737L74.4135 95.8056ZM75.7611 94.8134C76.2806 94.5707 76.8614 94.4473 77.5078 94.4473V93.9473C76.7961 93.9473 76.142 94.0836 75.5495 94.3604L75.7611 94.8134ZM77.5078 94.4473H83.8174V93.9473H77.5078V94.4473ZM83.5674 94.1973V95.5986H84.0674V94.1973H83.5674ZM83.8174 95.3486H77.5078V95.8486H83.8174V95.3486ZM77.5078 95.3486C76.9918 95.3486 76.5187 95.4486 76.0935 95.6537L76.3108 96.1041C76.6603 95.9355 77.0577 95.8486 77.5078 95.8486V95.3486ZM76.0947 95.6532C75.6802 95.8505 75.3257 96.123 75.0335 96.4697L75.4158 96.792C75.6613 96.5007 75.9585 96.2718 76.3096 96.1046L76.0947 95.6532ZM75.0332 96.47C74.7474 96.81 74.5279 97.2067 74.373 97.6569L74.8458 97.8196C74.9825 97.4222 75.1732 97.0806 75.416 96.7917L75.0332 96.47ZM74.3722 97.6592C74.2218 98.1105 74.1475 98.5909 74.1475 99.0986H74.6475C74.6475 98.6402 74.7144 98.2137 74.8465 97.8173L74.3722 97.6592ZM74.1475 99.0986C74.1475 99.6064 74.2218 100.089 74.372 100.544L74.8468 100.388C74.7144 99.9861 74.6475 99.557 74.6475 99.0986H74.1475ZM74.373 100.547C74.5278 100.997 74.747 101.396 75.0321 101.74L75.4171 101.421C75.1735 101.127 74.9826 100.782 74.8458 100.384L74.373 100.547ZM75.0346 101.743C75.3268 102.084 75.681 102.354 76.0947 102.551L76.3096 102.099C75.9576 101.932 75.6602 101.705 75.4146 101.418L75.0346 101.743ZM76.0957 102.551C76.5204 102.751 76.9927 102.849 77.5078 102.849V102.349C77.0568 102.349 76.6586 102.264 76.3086 102.099L76.0957 102.551ZM77.5078 102.849H83.8174V102.349H77.5078V102.849ZM83.5674 102.599V104H84.0674V102.599H83.5674ZM94.4268 104V104.25H94.6768V104H94.4268ZM93.0254 104H92.7754V104.25H93.0254V104ZM92.3145 98.4287L92.1359 98.6037L92.1377 98.6055L92.3145 98.4287ZM91.542 97.9023L91.4388 98.1301L91.4431 98.1319L91.542 97.9023ZM90.5986 97.6973L90.602 97.4473H90.5986V97.6973ZM86.75 97.6973V97.4473H86.5V97.6973H86.75ZM86.75 104V104.25H87V104H86.75ZM85.3486 104H85.0986V104.25H85.3486V104ZM85.3486 93.5V93.25H85.0986V93.5H85.3486ZM86.75 93.5H87V93.25H86.75V93.5ZM86.75 96.3027H86.5V96.5527H86.75V96.3027ZM92.0889 96.6104L91.988 96.8391L91.9898 96.8399L92.0889 96.6104ZM93.3057 97.4375L93.1277 97.6131L93.1289 97.6143L93.3057 97.4375ZM94.126 98.6611L93.8961 98.7593L93.8964 98.7602L94.126 98.6611ZM94.4268 103.75H93.0254V104.25H94.4268V103.75ZM93.2754 104V100.151H92.7754V104H93.2754ZM93.2754 100.151C93.2754 99.7817 93.2053 99.4311 93.0636 99.1023L92.6044 99.3001C92.7179 99.5636 92.7754 99.8466 92.7754 100.151H93.2754ZM93.0636 99.1023C92.924 98.7782 92.7333 98.494 92.4912 98.2519L92.1377 98.6055C92.3331 98.8009 92.4888 99.0317 92.6044 99.3001L93.0636 99.1023ZM92.493 98.2538C92.2508 98.0065 91.966 97.8128 91.6409 97.6727L91.4431 98.1319C91.7104 98.2471 91.9406 98.4043 92.1359 98.6037L92.493 98.2538ZM91.6452 97.6746C91.3205 97.5275 90.9718 97.4523 90.602 97.4473L90.5953 97.9472C90.8999 97.9514 91.1802 98.0129 91.4388 98.1301L91.6452 97.6746ZM90.5986 97.4473H86.75V97.9473H90.5986V97.4473ZM86.5 97.6973V104H87V97.6973H86.5ZM86.75 103.75H85.3486V104.25H86.75V103.75ZM85.5986 104V93.5H85.0986V104H85.5986ZM85.3486 93.75H86.75V93.25H85.3486V93.75ZM86.5 93.5V96.3027H87V93.5H86.5ZM86.75 96.5527H90.5986V96.0527H86.75V96.5527ZM90.5986 96.5527C91.094 96.5527 91.5562 96.6486 91.988 96.8391L92.1898 96.3816C91.6918 96.1619 91.1606 96.0527 90.5986 96.0527V96.5527ZM91.9898 96.8399C92.426 97.028 92.8046 97.2857 93.1277 97.6131L93.4836 97.2619C93.114 96.8875 92.6815 96.5937 92.1879 96.3808L91.9898 96.8399ZM93.1289 97.6143C93.4517 97.9371 93.7076 98.318 93.8961 98.7593L94.3559 98.5629C94.1434 98.0654 93.8523 97.6306 93.4824 97.2607L93.1289 97.6143ZM93.8964 98.7602C94.0829 99.1923 94.1768 99.6552 94.1768 100.151H94.6768C94.6768 99.5902 94.5701 99.0596 94.3555 98.5621L93.8964 98.7602ZM94.1768 100.151V104H94.6768V100.151H94.1768ZM105.084 104V104.25H105.334V104H105.084ZM96.3477 103.289L96.1709 103.466L96.1727 103.468L96.3477 103.289ZM95.8213 102.51L95.5911 102.607L95.5917 102.609L95.8213 102.51ZM96.3477 99.8164L96.1709 99.6396L96.3477 99.8164ZM102.979 99.0986H103.229V98.8486H102.979V99.0986ZM102.979 100.5V100.75H103.229V100.5H102.979ZM97.6738 100.589L97.7724 100.819L97.7791 100.816L97.6738 100.589ZM97.1133 101.963L96.8835 102.061L96.8848 102.064L97.1133 101.963ZM103.683 102.599V102.849H103.933V102.599H103.683ZM103.594 98.3467L103.364 98.4452L103.367 98.452L103.594 98.3467ZM103.033 97.7861L102.928 98.013L102.935 98.0159L103.033 97.7861ZM97.0312 97.6973H96.7812V97.9473H97.0312V97.6973ZM97.0312 96.3027V96.0527H96.7812V96.3027H97.0312ZM103.587 96.4941L103.686 96.2645L103.587 96.4941ZM104.366 97.0205L104.189 97.1973L104.191 97.1991L104.366 97.0205ZM105.084 103.75H98.084V104.25H105.084V103.75ZM98.084 103.75C97.7741 103.75 97.489 103.692 97.2259 103.579L97.028 104.038C97.3574 104.18 97.7102 104.25 98.084 104.25V103.75ZM97.2259 103.579C96.957 103.463 96.7232 103.307 96.5226 103.11L96.1727 103.468C96.4187 103.709 96.7045 103.899 97.028 104.038L97.2259 103.579ZM96.5244 103.112C96.324 102.912 96.1662 102.679 96.0509 102.411L95.5917 102.609C95.7315 102.933 95.9247 103.22 96.1709 103.466L96.5244 103.112ZM96.0514 102.412C95.9374 102.143 95.8799 101.858 95.8799 101.553H95.3799C95.3799 101.922 95.45 102.275 95.5911 102.607L96.0514 102.412ZM95.8799 101.553C95.8799 101.243 95.9375 100.958 96.0509 100.695L95.5917 100.497C95.4498 100.826 95.3799 101.179 95.3799 101.553H95.8799ZM96.0509 100.695C96.1662 100.427 96.324 100.194 96.5244 99.9932L96.1709 99.6396C95.9247 99.8858 95.7315 100.172 95.5917 100.497L96.0509 100.695ZM96.5244 99.9932C96.7249 99.7927 96.9581 99.635 97.2259 99.5196L97.028 99.0604C96.7034 99.2003 96.417 99.3935 96.1709 99.6396L96.5244 99.9932ZM97.2259 99.5196C97.489 99.4063 97.7741 99.3486 98.084 99.3486V98.8486C97.7102 98.8486 97.3574 98.9186 97.028 99.0604L97.2259 99.5196ZM98.084 99.3486H102.979V98.8486H98.084V99.3486ZM102.729 99.0986V100.5H103.229V99.0986H102.729ZM102.979 100.25H98.084V100.75H102.979V100.25ZM98.084 100.25C97.9032 100.25 97.7304 100.287 97.5686 100.362L97.7791 100.816C97.8725 100.772 97.9732 100.75 98.084 100.75V100.25ZM97.5753 100.359C97.4193 100.426 97.2809 100.519 97.1621 100.638L97.5156 100.991C97.5883 100.919 97.6732 100.861 97.7723 100.819L97.5753 100.359ZM97.1621 100.638C97.0433 100.756 96.9504 100.895 96.8835 101.051L97.3431 101.248C97.3856 101.149 97.443 101.064 97.5156 100.991L97.1621 100.638ZM96.8835 101.051C96.8152 101.21 96.7812 101.378 96.7812 101.553H97.2812C97.2812 101.445 97.302 101.344 97.3431 101.248L96.8835 101.051ZM96.7812 101.553C96.7812 101.731 96.8148 101.901 96.8835 102.061L97.3431 101.864C97.3024 101.769 97.2812 101.666 97.2812 101.553H96.7812ZM96.8848 102.064C96.952 102.216 97.0448 102.351 97.1621 102.468L97.5156 102.114C97.4415 102.04 97.3839 101.956 97.3417 101.861L96.8848 102.064ZM97.1621 102.468C97.2809 102.587 97.4193 102.68 97.5753 102.746L97.7723 102.287C97.6732 102.244 97.5883 102.187 97.5156 102.114L97.1621 102.468ZM97.5753 102.746C97.7356 102.815 97.906 102.849 98.084 102.849V102.349C97.9703 102.349 97.8672 102.327 97.7723 102.287L97.5753 102.746ZM98.084 102.849H103.683V102.349H98.084V102.849ZM103.933 102.599V98.75H103.433V102.599H103.933ZM103.933 98.75C103.933 98.5725 103.895 98.4021 103.821 98.2414L103.367 98.452C103.411 98.5464 103.433 98.6449 103.433 98.75H103.933ZM103.824 98.2482C103.757 98.0921 103.664 97.9537 103.545 97.8349L103.191 98.1885C103.264 98.2611 103.321 98.346 103.364 98.4452L103.824 98.2482ZM103.545 97.8349C103.426 97.7162 103.288 97.6232 103.132 97.5563L102.935 98.0159C103.034 98.0584 103.119 98.1159 103.191 98.1885L103.545 97.8349ZM103.138 97.5594C102.978 97.4848 102.807 97.4473 102.63 97.4473V97.9473C102.735 97.9473 102.833 97.969 102.928 98.0129L103.138 97.5594ZM102.63 97.4473H97.0312V97.9473H102.63V97.4473ZM97.2812 97.6973V96.3027H96.7812V97.6973H97.2812ZM97.0312 96.5527H102.63V96.0527H97.0312V96.5527ZM102.63 96.5527C102.94 96.5527 103.225 96.6104 103.488 96.7237L103.686 96.2645C103.357 96.1227 103.004 96.0527 102.63 96.0527V96.5527ZM103.488 96.7237C103.756 96.8391 103.989 96.9968 104.189 97.1973L104.543 96.8437C104.297 96.5976 104.01 96.4044 103.686 96.2645L103.488 96.7237ZM104.191 97.1991C104.391 97.3944 104.548 97.6245 104.663 97.8919L105.122 97.6941C104.982 97.3689 104.788 97.0841 104.541 96.8419L104.191 97.1991ZM104.663 97.8919C104.776 98.155 104.834 98.4402 104.834 98.75H105.334C105.334 98.3763 105.264 98.0234 105.122 97.6941L104.663 97.8919ZM104.834 98.75V104H105.334V98.75H104.834ZM109.753 104V104.25H110.003V104H109.753ZM108.352 104H108.102V104.25H108.352V104ZM108.352 97.6973H108.602V97.4473H108.352V97.6973ZM106.253 97.6973H106.003V97.9473H106.253V97.6973ZM106.253 96.3027V96.0527H106.003V96.3027H106.253ZM108.352 96.3027V96.5527H108.602V96.3027H108.352ZM108.352 93.5V93.25H108.102V93.5H108.352ZM109.753 93.5H110.003V93.25H109.753V93.5ZM109.753 96.3027H109.503V96.5527H109.753V96.3027ZM114.654 96.3027H114.904V96.0527H114.654V96.3027ZM114.654 97.6973V97.9473H114.904V97.6973H114.654ZM109.753 97.6973V97.4473H109.503V97.6973H109.753ZM109.753 103.75H108.352V104.25H109.753V103.75ZM108.602 104V97.6973H108.102V104H108.602ZM108.352 97.4473H106.253V97.9473H108.352V97.4473ZM106.503 97.6973V96.3027H106.003V97.6973H106.503ZM106.253 96.5527H108.352V96.0527H106.253V96.5527ZM108.602 96.3027V93.5H108.102V96.3027H108.602ZM108.352 93.75H109.753V93.25H108.352V93.75ZM109.503 93.5V96.3027H110.003V93.5H109.503ZM109.753 96.5527H114.654V96.0527H109.753V96.5527ZM114.404 96.3027V97.6973H114.904V96.3027H114.404ZM114.654 97.4473H109.753V97.9473H114.654V97.4473ZM109.503 97.6973V104H110.003V97.6973H109.503Z" fill="#FD5430"/>
</svg>
